PathFileType	4	(X/Y/Z)	/Users/itak/Documents/Research/Walk-IL/dataset/trc/00324_00011.trc
DataRate	CameraRate	NumFrames	NumMarkers	Units	OrigDataRate	OrigDataStartFrame	OrigNumFrames
100.000000	100.000000	4	56	mm	100.000000	0	480
Frame#	Time	LPSI			L3			STRN			T10			C7			CLAV			RBAK			LBAK			LSHO			LUPA			LAEL			LAOL			LWTS			LWPS			LFRA			LHPS			LHTS			RSHO			RUPA			RAEL			RAOL			RWTS			RWPS			RFRA			RIFD			RHTS			RHPS			RBHD			LFHD			RFHD			LBHD			LHIP			RASI			LASI			LKNE			LTHI			LANK			LTIP			LTOE			LMT1			LMT5			LHEE			RKNE			RANK			RTIP			RTOE			RMT1			RMT5			RHEE			RPSI			LIFD			RHIP			RTHI			*53			*54			*55			
		X1	Y1	Z1	X2	Y2	Z2	X3	Y3	Z3	X4	Y4	Z4	X5	Y5	Z5	X6	Y6	Z6	X7	Y7	Z7	X8	Y8	Z8	X9	Y9	Z9	X10	Y10	Z10	X11	Y11	Z11	X12	Y12	Z12	X13	Y13	Z13	X14	Y14	Z14	X15	Y15	Z15	X16	Y16	Z16	X17	Y17	Z17	X18	Y18	Z18	X19	Y19	Z19	X20	Y20	Z20	X21	Y21	Z21	X22	Y22	Z22	X23	Y23	Z23	X24	Y24	Z24	X25	Y25	Z25	X26	Y26	Z26	X27	Y27	Z27	X28	Y28	Z28	X29	Y29	Z29	X30	Y30	Z30	X31	Y31	Z31	X32	Y32	Z32	X33	Y33	Z33	X34	Y34	Z34	X35	Y35	Z35	X36	Y36	Z36	X37	Y37	Z37	X38	Y38	Z38	X39	Y39	Z39	X40	Y40	Z40	X41	Y41	Z41	X42	Y42	Z42	X43	Y43	Z43	X44	Y44	Z44	X45	Y45	Z45	X46	Y46	Z46	X47	Y47	Z47	X48	Y48	Z48	X49	Y49	Z49	X50	Y50	Z50	X51	Y51	Z51	X52	Y52	Z52	X53	Y53	Z53	X54	Y54	Z54	X55	Y55	Z55	X56	Y56	Z56	

1	0	-1480.199462890625	981.278076171875	-60.96788787841797	-1488.128662109375	1033.47802734375	7.425416946411133	-1270.915893554688	1232.850952148438	-3.885212898254395	-1511.064208984375	1152.397216796875	-4.80446195602417	-1482.595581054688	1402.1259765625	-28.83341217041016	-1322.344360351562	1356.592041015625	-15.48099613189697	-1521.637084960938	1263.864501953125	43.85933685302734	-1487.073120117188	1359.666015625	-129.5557250976562	-1400.727172851562	1379.26708984375	-183.3751220703125	-1409.50537109375	1255.8935546875	-246.5838317871094	-1382.23291015625	1052.320556640625	-249.4015502929688	-1446.949096679688	1038.261108398438	-196.8953704833984	-1278.889404296875	814.9426879882812	-195.6215362548828	-1319.518798828125	800.347900390625	-250.9071044921875	-1363.248657226562	948.5839233398438	-252.0154266357422	-1320.638916015625	730.2433471679688	-243.0028991699219	-1266.905151367188	736.3095092773438	-208.3576965332031	-1430.216430664062	1401.401977539062	136.9406433105469	-1439.915649414062	1338.54931640625	203.0336608886719	-1416.849975585938	1070.381713867188	242.3641357421875	-1458.175170898438	1061.150390625	157.1675415039062	-1298.459716796875	846.63818359375	194.5791015625	-1333.416625976562	830.5635986328125	261.7486267089844	-1388.807983398438	1004.532409667969	249.7761077880859	-1278.342041015625	674.8656005859375	207.4979400634766	-1266.432373046875	744.0338134765625	205.5339965820312	-1315.224609375	747.787109375	259.2773742675781	-1470.159423828125	1604.658325195312	42.68886184692383	-1286.145385742188	1639.051513671875	-50.79021072387695	-1309.551513671875	1638.587280273438	46.35483551025391	-1459.65234375	1595.7998046875	-101.2990798950195	-1390.630859375	925.3010864257812	-162.774169921875	-1300.963623046875	963.2562255859375	138.2581329345703	-1271.340209960938	957.0818481445312	-100.067985534668	-1348.694580078125	469.5579528808594	-150.0591735839844	-1348.179809570312	610.34033203125	-157.9909210205078	-1438.282104492188	48.33303833007812	-141.9593353271484	-1393.985473632812	253.3803558349609	-156.9351654052734	-1233.534057617188	47.50149154663086	-75.97061157226562	-1301.80419921875	34.97024917602539	-36.05605316162109	-1310.685424804688	45.82978820800781	-150.3671722412109	-1473.37060546875	42.08341979980469	-74.35271453857422	-1372.029663085938	467.5930480957031	168.1875305175781	-1429.171264648438	53.30714416503906	149.4665374755859	-1366.415283203125	346.4078674316406	159.6596984863281	-1237.260498046875	44.45040130615234	93.36500549316406	-1295.234497070312	44.19438171386719	54.68351364135742	-1326.405151367188	42.56737518310547	166.5719299316406	-1481.044067382812	52.66373062133789	102.9786529541016	-1483.696411132812	982.8330078125	67.68349456787109	-1273.294311523438	652.0405883789062	-184.0768737792969	-1407.833374023438	931.5868530273438	179.2070617675781	-1321.400268554688	713.8568725585938	170.5589599609375	nan	nan	nan	nan	nan	nan	nan	nan	nan	
2	0.01	-1480.080322265625	981.2974243164062	-60.89051818847656	-1487.923095703125	1033.486572265625	7.5196533203125	-1270.696655273438	1232.919555664062	-3.929770469665527	-1510.98583984375	1152.474487304688	-4.744461536407471	-1482.49169921875	1402.113647460938	-28.80946159362793	-1322.128540039062	1356.596923828125	-15.39822864532471	-1521.50390625	1263.820922851562	43.90239715576172	-1486.886840820312	1359.680786132812	-129.4505615234375	-1400.579711914062	1379.260864257812	-183.3138885498047	-1409.308227539062	1255.886962890625	-246.4902496337891	-1382.081420898438	1052.30810546875	-249.2696838378906	-1446.746215820312	1038.261962890625	-196.7499847412109	-1278.644653320312	815.0830688476562	-195.4650573730469	-1319.329223632812	800.341064453125	-250.6850433349609	-1363.069091796875	948.5750732421875	-251.8547210693359	-1320.366088867188	730.2555541992188	-242.7016296386719	-1266.712890625	736.2901611328125	-208.1397399902344	-1430.018432617188	1401.406005859375	136.9889373779297	-1439.766479492188	1338.53515625	203.1259765625	-1416.654663085938	1070.352172851562	242.4178161621094	-1458.026000976562	1061.15673828125	157.2034149169922	-1298.378784179688	846.5924072265625	194.6006164550781	-1333.332641601562	830.53466796875	261.7838439941406	-1388.615356445312	1004.529235839844	249.7886810302734	-1278.276977539062	674.7495727539062	207.4511260986328	-1266.365356445312	744.0137939453125	205.5866394042969	-1315.155639648438	747.7422485351562	259.3260498046875	-1469.930297851562	1604.64208984375	42.85881423950195	-1286.000122070312	1639.0283203125	-50.72112274169922	-1309.36474609375	1638.573120117188	46.39265823364258	-1459.462280273438	1595.794189453125	-101.212646484375	-1390.477905273438	925.2975463867188	-162.6985473632812	-1300.856811523438	963.227294921875	138.2605743408203	-1271.136474609375	957.1055297851562	-100.1010589599609	-1348.6474609375	469.5707092285156	-150.0583953857422	-1348.073608398438	610.3309936523438	-157.9605255126953	-1438.283081054688	48.34396362304688	-141.9605865478516	-1393.96337890625	253.3798065185547	-156.9359436035156	-1233.54345703125	47.49655151367188	-75.98117828369141	-1301.810424804688	34.96604537963867	-36.0443229675293	-1310.686645507812	45.82210540771484	-150.3669128417969	-1473.359252929688	42.08656311035156	-74.35177612304688	-1372.001708984375	467.5861511230469	168.2070922851562	-1429.168823242188	53.30407333374023	149.4697723388672	-1366.3935546875	346.3921813964844	159.6784820556641	-1237.270874023438	44.44680404663086	93.35657501220703	-1295.233276367188	44.17413330078125	54.67427444458008	-1326.40771484375	42.56686401367188	166.5782012939453	-1481.037109375	52.66714096069336	102.9793014526367	-1483.58349609375	982.9010009765625	67.73536682128906	-1272.918090820312	652.323974609375	-184.0275421142578	-1407.640014648438	931.51513671875	179.2809295654297	-1321.350830078125	713.8428955078125	170.5977935791016	nan	nan	nan	nan	nan	nan	nan	nan	nan	
3	0.02	-1479.9306640625	981.3264770507812	-60.78928756713867	-1487.671752929688	1033.49658203125	7.627354621887207	-1270.419677734375	1233.006469726562	-3.979128360748291	-1510.87548828125	1152.561767578125	-4.665305614471436	-1482.34765625	1402.095947265625	-28.76899147033691	-1321.840576171875	1356.615478515625	-15.29120254516602	-1521.32177734375	1263.772094726562	43.96712112426758	-1486.64453125	1359.703979492188	-129.31640625	-1400.371826171875	1379.259399414062	-183.2225646972656	-1409.059692382812	1255.8798828125	-246.3744354248047	-1381.897094726562	1052.296264648438	-249.1055297851562	-1446.502685546875	1038.26611328125	-196.5755157470703	-1278.355834960938	815.2412109375	-195.2373657226562	-1319.069946289062	800.334716796875	-250.3857421875	-1362.827514648438	948.5689086914062	-251.6404571533203	-1320.009765625	730.2693481445312	-242.3101501464844	-1266.412353515625	736.2998046875	-207.8385467529297	-1429.780029296875	1401.4091796875	137.0571899414062	-1439.568115234375	1338.50927734375	203.2445220947266	-1416.436401367188	1070.321533203125	242.4743041992188	-1457.837524414062	1061.171508789062	157.2384948730469	-1298.25927734375	846.5367431640625	194.6224670410156	-1333.217041015625	830.5025634765625	261.8100891113281	-1388.3720703125	1004.522094726562	249.811767578125	-1278.174438476562	674.5927124023438	207.3734893798828	-1266.257568359375	744.0018310546875	205.6628265380859	-1315.081787109375	747.6923217773438	259.3605041503906	-1469.635986328125	1604.616088867188	43.05748748779297	-1285.793212890625	1639.001831054688	-50.62667465209961	-1309.138671875	1638.560791015625	46.45951461791992	-1459.25390625	1595.793823242188	-101.1109237670898	-1390.297973632812	925.29638671875	-162.6109008789062	-1300.722045898438	963.1875	138.2609100341797	-1270.900268554688	957.1328735351562	-100.1355895996094	-1348.583618164062	469.5821228027344	-150.0559692382812	-1347.9267578125	610.3141479492188	-157.9119415283203	-1438.283569335938	48.35457992553711	-141.9625396728516	-1393.932861328125	253.3784484863281	-156.9340362548828	-1233.557983398438	47.49209594726562	-75.9921875	-1301.82080078125	34.95759963989258	-36.03385543823242	-1310.689208984375	45.81234741210938	-150.3673095703125	-1473.346435546875	42.09013748168945	-74.35021209716797	-1371.963256835938	467.5742797851562	168.2337341308594	-1429.167602539062	53.30037689208984	149.4748077392578	-1366.365478515625	346.3706665039062	159.7002105712891	-1237.282958984375	44.44218444824219	93.34786987304688	-1295.23291015625	44.1508903503418	54.66457366943359	-1326.410766601562	42.56509017944336	166.5862579345703	-1481.027587890625	52.6695556640625	102.9794387817383	-1483.453247070312	982.9824829101562	67.80043792724609	-1272.537475585938	652.5950927734375	-183.8915557861328	-1407.397827148438	931.4370727539062	179.3619079589844	-1321.276245117188	713.8248291015625	170.6477203369141	nan	nan	nan	nan	nan	nan	nan	nan	nan	
4	0.03	-1479.757202148438	981.3655395507812	-60.6683235168457	-1487.390869140625	1033.508178710938	7.738565921783447	-1270.093139648438	1233.110473632812	-4.027990341186523	-1510.730102539062	1152.650756835938	-4.567764759063721	-1482.161254882812	1402.073974609375	-28.70730018615723	-1321.494384765625	1356.64990234375	-15.16014289855957	-1521.09033203125	1263.723266601562	44.05660247802734	-1486.354370117188	1359.736083984375	-129.1596221923828	-1400.101928710938	1379.265869140625	-183.0985107421875	-1408.771118164062	1255.872924804688	-246.2427520751953	-1381.685302734375	1052.287353515625	-248.9141082763672	-1446.232421875	1038.275146484375	-196.3820953369141	-1278.038818359375	815.4019165039062	-194.9400939941406	-1318.742309570312	800.3309326171875	-250.0126342773438	-1362.525390625	948.5672607421875	-251.3746948242188	-1319.5830078125	730.2846069335938	-241.8404235839844	-1266.004516601562	736.3449096679688	-207.4533538818359	-1429.514282226562	1401.40966796875	137.1458282470703	-1439.323974609375	1338.469604492188	203.3858337402344	-1416.214111328125	1070.293212890625	242.5262603759766	-1457.6181640625	1061.19482421875	157.267822265625	-1298.096557617188	846.4735107421875	194.6400451660156	-1333.067993164062	830.4700317382812	261.8173522949219	-1388.089111328125	1004.510009765625	249.8482666015625	-1278.030151367188	674.3968505859375	207.2599334716797	-1266.10205078125	744.0032958984375	205.761474609375	-1315.006591796875	747.6431274414062	259.3711547851562	-1469.286865234375	1604.580444335938	43.26834487915039	-1285.523071289062	1638.973999023438	-50.50771713256836	-1308.885131835938	1638.552734375	46.56142425537109	-1459.048217773438	1595.8017578125	-101.0008850097656	-1390.104248046875	925.2987060546875	-162.5185394287109	-1300.5634765625	963.13916015625	138.2601318359375	-1270.651977539062	957.1608276367188	-100.1660614013672	-1348.504150390625	469.5902404785156	-150.0506744384766	-1347.741455078125	610.2885131835938	-157.8437194824219	-1438.283203125	48.36375427246094	-141.9651641845703	-1393.894653320312	253.376220703125	-156.9281768798828	-1233.578125	47.48929977416992	-76.00179290771484	-1301.83544921875	34.94353866577148	-36.02633285522461	-1310.693115234375	45.8010139465332	-150.3685607910156	-1473.333251953125	42.09394836425781	-74.34822082519531	-1371.914794921875	467.5569458007812	168.2667236328125	-1429.16845703125	53.29646301269531	149.4815521240234	-1366.331665039062	346.3440551757812	159.7232055664062	-1237.296020507812	44.43692398071289	93.33934783935547	-1295.23388671875	44.12672805786133	54.65550231933594	-1326.413452148438	42.56210327148438	166.5955657958984	-1481.0166015625	52.67097091674805	102.9791107177734	-1483.31298828125	983.0711669921875	67.87615966796875	-1272.1728515625	652.8250122070312	-183.6630249023438	-1407.119506835938	931.362548828125	179.44189453125	-1321.173461914062	713.8036499023438	170.7061920166016	nan	nan	nan	nan	nan	nan	nan	nan	nan	
